<?xml version="1.0" encoding="UTF-8" standalone="no"?>
<!DOCTYPE svg PUBLIC "-//W3C//DTD SVG 1.1//EN"
"http://www.w3.org/Graphics/SVG/1.1/DTD/svg11.dtd">
<svg version="1.1" xmlns="http://www.w3.org/2000/svg" xmlns:xlink="http://www.w3.org/1999/xlink">
<defs>
<style type="text/css"><![CDATA[
.g1_1{
fill: none;
stroke: #000000;
stroke-width: 2;
stroke-linecap: round;
stroke-linejoin: miter;
stroke-miterlimit: 7;
}
]]></style>
</defs>
<path d="M666,103l0,34" class="g1_1" />
<path d="M763,103l0,34" class="g1_1" />
<path d="M666,103l97,0" class="g1_1" />
<path d="M666,137l97,0" class="g1_1" />
<path d="M666,137l0,34" class="g1_1" />
<path d="M763,137l0,34" class="g1_1" />
<path d="M666,137l97,0" class="g1_1" />
<path d="M666,171l97,0" class="g1_1" />
<path d="M763,103l0,34" class="g1_1" />
<path d="M873,103l0,34" class="g1_1" />
<path d="M763,103l110,0" class="g1_1" />
<path d="M763,137l110,0" class="g1_1" />
<path d="M763,137l0,34" class="g1_1" />
<path d="M873,137l0,34" class="g1_1" />
<path d="M763,137l110,0" class="g1_1" />
<path d="M763,171l110,0" class="g1_1" />
<path d="M55,199l0,34" class="g1_1" />
<path d="M426,199l0,34" class="g1_1" />
<path d="M55,199l371,0" class="g1_1" />
<path d="M55,233l371,0" class="g1_1" />
<path d="M55,233l0,131" class="g1_1" />
<path d="M426,233l0,131" class="g1_1" />
<path d="M55,233l371,0" class="g1_1" />
<path d="M55,364l371,0" class="g1_1" />
<path d="M426,199l0,34" class="g1_1" />
<path d="M756,199l0,34" class="g1_1" />
<path d="M426,199l330,0" class="g1_1" />
<path d="M426,233l330,0" class="g1_1" />
<path d="M426,233l0,131" class="g1_1" />
<path d="M756,233l0,131" class="g1_1" />
<path d="M426,233l330,0" class="g1_1" />
<path d="M426,364l330,0" class="g1_1" />
<path d="M605,385l0,34" class="g1_1" />
<path d="M735,385l0,34" class="g1_1" />
<path d="M605,385l130,0" class="g1_1" />
<path d="M605,419l130,0" class="g1_1" />
<path d="M605,419l0,41" class="g1_1" />
<path d="M735,419l0,41" class="g1_1" />
<path d="M605,419l130,0" class="g1_1" />
<path d="M605,460l130,0" class="g1_1" />
<path d="M735,385l0,34" class="g1_1" />
<path d="M880,385l0,34" class="g1_1" />
<path d="M735,385l145,0" class="g1_1" />
<path d="M735,419l145,0" class="g1_1" />
<path d="M735,419l0,41" class="g1_1" />
<path d="M880,419l0,41" class="g1_1" />
<path d="M735,419l145,0" class="g1_1" />
<path d="M735,460l145,0" class="g1_1" />
<path d="M55,941l0,55" class="g1_1" />
<path d="M591,941l0,55" class="g1_1" />
<path d="M55,941l536,0" class="g1_1" />
<path d="M55,996l536,0" class="g1_1" />
<path d="M591,1051l0,55" class="g1_1" />
<path d="M880,1051l0,55" class="g1_1" />
<path d="M591,1051l289,0" class="g1_1" />
<path d="M591,1106l289,0" class="g1_1" />
<path d="M591,941l0,55" class="g1_1" />
<path d="M880,941l0,55" class="g1_1" />
<path d="M591,941l289,0" class="g1_1" />
<path d="M591,996l289,0" class="g1_1" />
<path d="M591,996l0,55" class="g1_1" />
<path d="M880,996l0,55" class="g1_1" />
<path d="M591,996l289,0" class="g1_1" />
<path d="M591,1051l289,0" class="g1_1" />
<path d="M55,1010l0,96" class="g1_1" />
<path d="M577,1010l0,96" class="g1_1" />
<path d="M55,1010l522,0" class="g1_1" />
<path d="M55,1106l522,0" class="g1_1" />
<path d="M55,495l0,34" class="g1_1" />
<path d="M231,495l0,34" class="g1_1" />
<path d="M55,495l176,0" class="g1_1" />
<path d="M55,529l176,0" class="g1_1" />
<path d="M231,495l0,34" class="g1_1" />
<path d="M703,495l0,34" class="g1_1" />
<path d="M231,495l472,0" class="g1_1" />
<path d="M231,529l472,0" class="g1_1" />
<path d="M703,495l0,34" class="g1_1" />
<path d="M880,495l0,34" class="g1_1" />
<path d="M703,495l177,0" class="g1_1" />
<path d="M703,529l177,0" class="g1_1" />
<path d="M55,529l0,412" class="g1_1" />
<path d="M231,529l0,412" class="g1_1" />
<path d="M55,529l176,0" class="g1_1" />
<path d="M55,941l176,0" class="g1_1" />
<path d="M231,529l0,412" class="g1_1" />
<path d="M703,529l0,412" class="g1_1" />
<path d="M231,529l472,0" class="g1_1" />
<path d="M231,941l472,0" class="g1_1" />
<path d="M703,529l0,412" class="g1_1" />
<path d="M880,529l0,412" class="g1_1" />
<path d="M703,529l177,0" class="g1_1" />
<path d="M703,941l177,0" class="g1_1" />
</svg>